<?xml version="1.0" encoding="UTF-8" standalone="no"?>
<!-- Created with Inkscape (http://www.inkscape.org/) -->

<svg
   xmlns:dc="http://purl.org/dc/elements/1.1/"
   xmlns:cc="http://creativecommons.org/ns#"
   xmlns:rdf="http://www.w3.org/1999/02/22-rdf-syntax-ns#"
   xmlns:svg="http://www.w3.org/2000/svg"
   xmlns="http://www.w3.org/2000/svg"
   xmlns:sodipodi="http://sodipodi.sourceforge.net/DTD/sodipodi-0.dtd"
   xmlns:inkscape="http://www.inkscape.org/namespaces/inkscape"
   width="210mm"
   height="297mm"
   viewBox="0 0 210 297"
   version="1.1"
   id="svg8"
   inkscape:version="0.92.3 (2405546, 2018-03-11)"
   sodipodi:docname="BV_fig.svg">
  <sodipodi:namedview
     id="base"
     pagecolor="#ffffff"
     bordercolor="#666666"
     borderopacity="1.0"
     inkscape:pageopacity="0.0"
     inkscape:pageshadow="2"
     inkscape:zoom="0.98994949"
     inkscape:cx="420.90134"
     inkscape:cy="707.89478"
     inkscape:document-units="mm"
     inkscape:current-layer="layer1"
     showgrid="false"
     inkscape:window-width="1280"
     inkscape:window-height="1002"
     inkscape:window-x="1912"
     inkscape:window-y="48"
     inkscape:window-maximized="1" />
  <defs
     id="defs2">
    <clipPath
       id="clipPath1473"
       clipPathUnits="userSpaceOnUse">
      <path
         inkscape:connector-curvature="0"
         id="path1471"
         d="M 54,36 H 388.8 V 253.44 H 54 Z" />
    </clipPath>
    <clipPath
       id="clipPath1473-7"
       clipPathUnits="userSpaceOnUse">
      <path
         inkscape:connector-curvature="0"
         id="path1471-6"
         d="M 54,36 H 388.8 V 253.44 H 54 Z" />
    </clipPath>
  </defs>
  <metadata
     id="metadata5">
    <rdf:RDF>
      <cc:Work
         rdf:about="">
        <dc:format>image/svg+xml</dc:format>
        <dc:type
           rdf:resource="http://purl.org/dc/dcmitype/StillImage" />
        <dc:title></dc:title>
      </cc:Work>
    </rdf:RDF>
  </metadata>
  <g
     id="layer1"
     inkscape:groupmode="layer"
     inkscape:label="Ebene 1">
    <rect
       y="49.077656"
       x="12.503256"
       height="91.949875"
       width="40.383373"
       id="rect815"
       style="opacity:0.49800002;fill:#ff0000;fill-opacity:1;stroke:#000000;stroke-width:0.86913079;stroke-miterlimit:4;stroke-dasharray:none;stroke-opacity:1" />
    <path
       inkscape:connector-curvature="0"
       id="path817"
       d="m 12.47629,87.598856 40.059325,0.38264"
       style="fill:none;stroke:#000000;stroke-width:0.34224305;stroke-linecap:butt;stroke-linejoin:miter;stroke-miterlimit:4;stroke-dasharray:none;stroke-opacity:1" />
    <g
       transform="matrix(-0.35277777,0,0,-0.35277777,157.01907,63.596258)"
       inkscape:label="ink"
       id="g1365">
      <g
         id="g1467"
         transform="translate(-90.952424,-312.67987)">
        <g
           clip-path="url(#clipPath1473-7)"
           id="g1469">
          <path
             inkscape:connector-curvature="0"
             id="path1475"
             style="fill:none;stroke:#000000;stroke-width:2;stroke-linecap:square;stroke-linejoin:round;stroke-miterlimit:10;stroke-dasharray:none;stroke-opacity:1"
             d="m -1,99.975397 46.63,0.377983 33.48,0.46693 26.784,0.56476 23.436,0.69987 20.088,0.81298 16.74,0.87815 16.74,1.11542 13.392,1.10827 13.392,1.34798 10.044,1.2016 10.044,1.39692 10.044,1.62727 10.044,1.90005 6.696,1.44333 6.696,1.6054 6.696,1.7883 6.696,1.99526 6.696,2.23013 6.696,2.49752 6.696,2.80296 6.696,3.1532 6.696,3.55645 6.696,4.02274 3.348,2.20926 3.348,2.35529 3.348,2.5132 3.348,2.6842 3.348,2.86966 3.348,3.0711 3.348,3.29024 3.348,3.52907 3.348,3.78977 3.348,4.07489 3.348,4.38728 3.348,4.73026 3.348,5.1076 3.348,5.52363 3.348,5.98338 3.348,6.49263 3.348,7.05815 3.348,7.68777 3.348,8.39071 3.348,9.17776 3.348,10.06164 v 0" />
        </g>
      </g>
    </g>
    <text
       xml:space="preserve"
       style="font-style:normal;font-weight:normal;font-size:10.58333302px;line-height:1.25;font-family:sans-serif;letter-spacing:0px;word-spacing:0px;fill:#000000;fill-opacity:1;stroke:none;stroke-width:0.26458332"
       x="132.03114"
       y="125.41297"
       id="text1577"><tspan
         sodipodi:role="line"
         id="tspan1575"
         x="132.03114"
         y="125.41297"
         style="stroke-width:0.26458332">$\phi_{sol}$</tspan></text>
  </g>
</svg>
